
<svg class="icon" style="width: 3em; height: 3em;vertical-align: middle;fill: currentColor;overflow: hidden;" viewBox="0 0 1024 1024" version="1.1" xmlns="http://www.w3.org/2000/svg"><path d="M750.08 743.424H366.592c-32.768 0-60.416-23.552-65.536-55.808L248.32 368.64c-2.048-13.824 1.536-27.648 10.752-38.4 9.216-10.752 22.016-16.896 36.352-16.896l551.424-2.56c14.848 0 28.16 6.656 37.376 17.92 9.216 11.776 12.288 26.624 8.704 40.96l-78.336 323.072c-6.656 29.696-33.28 50.688-64.512 50.688z m96.768-391.68l-551.424 2.56c-2.56 0-4.096 1.536-5.12 2.56-0.512 1.024-2.048 2.56-1.536 5.12L341.504 680.96c2.048 12.288 12.8 21.504 25.6 21.504h383.488c11.776 0 22.016-8.192 25.088-19.456l78.336-323.072c0.512-2.56-0.512-4.608-1.024-5.632-1.536-1.024-3.072-2.56-6.144-2.56z m-51.712 335.872z" fill="#4C4C4C" /><path d="M299.008 573.952c-9.728 0-18.432-7.168-19.968-17.408L212.992 148.48H65.024c-11.264 0-20.48-9.216-20.48-20.48s9.216-20.48 20.48-20.48H230.4c10.24 0 18.432 7.168 19.968 17.408l68.608 425.472c2.048 11.264-5.632 21.504-16.896 23.552h-3.072z" fill="#4C4C4C" /><path d="M425.984 868.864m-54.784 0a54.784 54.784 0 1 0 109.568 0 54.784 54.784 0 1 0-109.568 0Z" fill="#4C4C4C" /><path d="M698.88 868.864m-54.784 0a54.784 54.784 0 1 0 109.568 0 54.784 54.784 0 1 0-109.568 0Z" fill="#4C4C4C" /></svg>